<svg width="19" height="18" viewBox="0 0 19 18" fill="none" xmlns="http://www.w3.org/2000/svg">
<path d="M14.2552 4.5V11.8125C14.2552 11.9244 14.2107 12.0317 14.1316 12.1108C14.0525 12.1899 13.9452 12.2344 13.8333 12.2344C13.7214 12.2344 13.6141 12.1899 13.535 12.1108C13.4559 12.0317 13.4114 11.9244 13.4114 11.8125V5.51953L5.1286 13.7953C5.05027 13.8736 4.94405 13.9176 4.83328 13.9176C4.72252 13.9176 4.61629 13.8736 4.53797 13.7953C4.45965 13.717 4.41565 13.6108 4.41565 13.5C4.41565 13.3892 4.45965 13.283 4.53797 13.2047L12.8138 4.92188H6.52078C6.4089 4.92188 6.30159 4.87743 6.22247 4.79831C6.14336 4.71919 6.09891 4.61189 6.09891 4.5C6.09891 4.38811 6.14336 4.28081 6.22247 4.20169C6.30159 4.12257 6.4089 4.07813 6.52078 4.07812H13.8333C13.9452 4.07813 14.0525 4.12257 14.1316 4.20169C14.2107 4.28081 14.2552 4.38811 14.2552 4.5Z" fill="#DAC5A7"/>
</svg>
