<svg width="20" height="20" viewBox="0 0 20 20" fill="none" xmlns="http://www.w3.org/2000/svg">
<path d="M15.9532 9.07812C15.9109 9.12256 15.8599 9.15794 15.8035 9.18211C15.7471 9.20629 15.6864 9.21875 15.625 9.21875C15.5637 9.21875 15.503 9.20629 15.4466 9.18211C15.3902 9.15794 15.3392 9.12256 15.2969 9.07812L10.4688 4.25781V16.875C10.4688 16.9993 10.4194 17.1185 10.3315 17.2065C10.2436 17.2944 10.1244 17.3438 10 17.3438C9.87573 17.3438 9.7565 17.2944 9.66859 17.2065C9.58069 17.1185 9.5313 16.9993 9.5313 16.875V4.25781L4.70317 9.07812C4.61615 9.16515 4.49812 9.21404 4.37505 9.21404C4.25198 9.21404 4.13395 9.16515 4.04692 9.07812C3.9599 8.9911 3.91101 8.87307 3.91101 8.75C3.91101 8.62693 3.9599 8.5089 4.04692 8.42188L9.67192 2.79687C9.71425 2.75244 9.76515 2.71706 9.82156 2.69289C9.87796 2.66871 9.93868 2.65625 10 2.65625C10.0614 2.65625 10.1221 2.66871 10.1785 2.69289C10.2349 2.71706 10.2859 2.75244 10.3282 2.79687L15.9532 8.42188C15.9976 8.4642 16.033 8.5151 16.0572 8.57151C16.0813 8.62791 16.0938 8.68863 16.0938 8.75C16.0938 8.81137 16.0813 8.87209 16.0572 8.92849C16.033 8.9849 15.9976 9.0358 15.9532 9.07812Z" fill="#DAC5A7"/>
</svg>
