<svg width="18" height="19" viewBox="0 0 18 19" fill="none" xmlns="http://www.w3.org/2000/svg">
<path d="M13.9218 5V12.3125C13.9218 12.4244 13.8774 12.5317 13.7983 12.6108C13.7192 12.6899 13.6119 12.7344 13.5 12.7344C13.3881 12.7344 13.2808 12.6899 13.2017 12.6108C13.1225 12.5317 13.0781 12.4244 13.0781 12.3125V6.01953L4.79528 14.2953C4.71696 14.3736 4.61074 14.4176 4.49997 14.4176C4.38921 14.4176 4.28298 14.3736 4.20466 14.2953C4.12634 14.217 4.08234 14.1108 4.08234 14C4.08234 13.8892 4.12634 13.783 4.20466 13.7047L12.4804 5.42188H6.18747C6.07558 5.42188 5.96828 5.37743 5.88916 5.29831C5.81004 5.21919 5.7656 5.11189 5.7656 5C5.7656 4.88811 5.81004 4.78081 5.88916 4.70169C5.96828 4.62257 6.07558 4.57813 6.18747 4.57812H13.5C13.6119 4.57813 13.7192 4.62257 13.7983 4.70169C13.8774 4.78081 13.9218 4.88811 13.9218 5Z" fill="#0E0E0E"/>
</svg>
