<svg width="20" height="20" viewBox="0 0 20 20" fill="none" xmlns="http://www.w3.org/2000/svg">
<path d="M15.9531 11.5781L10.3281 17.2031C10.2858 17.2476 10.2349 17.2829 10.1785 17.3071C10.1221 17.3313 10.0614 17.3438 9.99999 17.3438C9.93862 17.3438 9.8779 17.3313 9.82149 17.3071C9.76509 17.2829 9.71418 17.2476 9.67186 17.2031L4.04686 11.5781C3.95984 11.4911 3.91095 11.3731 3.91095 11.25C3.91095 11.1269 3.95984 11.0089 4.04686 10.9219C4.13389 10.8349 4.25192 10.786 4.37499 10.786C4.49806 10.786 4.61609 10.8349 4.70311 10.9219L9.53124 15.7422V3.125C9.53124 3.00068 9.58062 2.88145 9.66853 2.79354C9.75644 2.70564 9.87567 2.65625 9.99999 2.65625C10.1243 2.65625 10.2435 2.70564 10.3314 2.79354C10.4194 2.88145 10.4687 3.00068 10.4687 3.125V15.7422L15.2969 10.9219C15.3839 10.8349 15.5019 10.786 15.625 10.786C15.7481 10.786 15.8661 10.8349 15.9531 10.9219C16.0401 11.0089 16.089 11.1269 16.089 11.25C16.089 11.3731 16.0401 11.4911 15.9531 11.5781Z" fill="#DAC5A7"/>
</svg>
