<svg width="20" height="20" viewBox="0 0 20 20" fill="none" xmlns="http://www.w3.org/2000/svg">
<path d="M17.9688 10.0547V10C17.9695 8.81557 17.7054 7.64593 17.1958 6.57671C16.6862 5.50748 15.944 4.56572 15.0234 3.82034L14.9844 3.78128L14.9453 3.75003C13.539 2.63376 11.7955 2.0278 10 2.03128C8.80643 2.0282 7.62795 2.2981 6.55469 2.82034L6.46094 2.8594C5.37231 3.4023 4.42169 4.18609 3.68122 5.15126C2.94076 6.11644 2.42993 7.23762 2.1875 8.42971V8.44534C2.08318 8.95698 2.03083 9.47786 2.03125 10C2.03155 11.2379 2.32052 12.4587 2.8752 13.5653C3.42988 14.672 4.23499 15.634 5.22657 16.375L5.30469 16.4375H5.32032C6.67871 17.4306 8.31731 17.9668 10 17.9688C10.9023 17.9715 11.7983 17.8182 12.6484 17.5157L12.6953 17.5C14.2265 16.9462 15.552 15.938 16.4944 14.6102C17.4368 13.2824 17.9512 11.6985 17.9688 10.0703V10.0547ZM17.0156 9.55471C16.7656 9.53909 16.5078 9.53128 16.25 9.53128C15.0557 9.52986 13.8671 9.69553 12.7188 10.0235C12.4295 9.14666 12.0526 8.30124 11.5938 7.50003L11.5547 7.44534C12.7495 6.74142 13.8253 5.85282 14.7422 4.81253C16.0869 6.03819 16.9022 7.73879 17.0156 9.55471ZM14.0078 4.22659C13.1584 5.19097 12.1585 6.01148 11.0469 6.65628C10.1481 5.3616 9.02335 4.2395 7.72657 3.34378C8.7696 2.98913 9.88131 2.88425 10.9723 3.03758C12.0632 3.19091 13.103 3.59817 14.0078 4.22659ZM6.69531 3.7969C8.07845 4.6496 9.2744 5.77379 10.2109 7.10159C8.58398 7.87939 6.80333 8.2825 5 8.28128C4.40382 8.28008 3.80852 8.23569 3.21875 8.14846C3.47215 7.22497 3.91113 6.36281 4.50886 5.61463C5.1066 4.86645 5.85056 4.24795 6.69531 3.7969ZM2.96875 10C2.96986 9.68912 2.99074 9.3786 3.03125 9.07034C3.68313 9.16666 4.34105 9.21627 5 9.21878C6.98564 9.22276 8.94539 8.76824 10.7266 7.89065L10.7813 7.97659C11.2107 8.71662 11.5615 9.49952 11.8281 10.3125C11.1212 10.5651 10.4387 10.8815 9.78907 11.2578C8.03884 12.2606 6.54836 13.6601 5.4375 15.3438C4.66389 14.6847 4.04251 13.8656 3.61629 12.943C3.19006 12.0204 2.96913 11.0163 2.96875 10ZM6.1875 15.9063C7.60515 13.7577 9.66749 12.1138 12.0781 11.211C12.3032 12.1368 12.416 13.0863 12.4141 14.0391C12.4175 14.9355 12.3179 15.8294 12.1172 16.7032C11.1312 17.0157 10.0883 17.1063 9.06314 16.9685C8.03801 16.8307 7.05602 16.468 6.1875 15.9063ZM13.1641 16.2813C13.2888 15.5404 13.3516 14.7904 13.3516 14.0391C13.3526 12.9887 13.2267 11.9421 12.9766 10.9219C14.042 10.6228 15.1433 10.4703 16.25 10.4688C16.5078 10.4688 16.7578 10.4766 17.0156 10.4922C16.929 11.7078 16.5286 12.8802 15.8536 13.8949C15.1785 14.9095 14.2518 15.7318 13.1641 16.2813Z" fill="#DAC5A7"/>
</svg>
