<svg width="20" height="20" viewBox="0 0 20 20" fill="none" xmlns="http://www.w3.org/2000/svg">
<path d="M12.6563 6.25C12.6563 6.12568 12.7056 6.00645 12.7935 5.91854C12.8815 5.83064 13.0007 5.78125 13.125 5.78125H18.125C18.2493 5.78125 18.3686 5.83064 18.4565 5.91854C18.5444 6.00645 18.5938 6.12568 18.5938 6.25C18.5938 6.37432 18.5444 6.49355 18.4565 6.58146C18.3686 6.66936 18.2493 6.71875 18.125 6.71875H13.125C13.0007 6.71875 12.8815 6.66936 12.7935 6.58146C12.7056 6.49355 12.6563 6.37432 12.6563 6.25ZM19.2188 11.875C19.2188 11.9993 19.1694 12.1185 19.0815 12.2065C18.9936 12.2944 18.8743 12.3438 18.75 12.3438H13.0078C13.1193 12.9569 13.4422 13.5116 13.9204 13.9113C14.3986 14.311 15.0018 14.5303 15.625 14.5312C15.974 14.5334 16.3198 14.4654 16.6419 14.3312C16.964 14.197 17.2558 13.9993 17.5 13.75C17.5889 13.6636 17.708 13.6153 17.832 13.6153C17.956 13.6153 18.0751 13.6636 18.1641 13.75C18.2087 13.793 18.2442 13.8446 18.2685 13.9016C18.2928 13.9587 18.3053 14.02 18.3053 14.082C18.3053 14.144 18.2928 14.2054 18.2685 14.2624C18.2442 14.3195 18.2087 14.3711 18.1641 14.4141C17.5756 15.0015 16.8017 15.3668 15.9741 15.4475C15.1466 15.5283 14.3166 15.3196 13.6257 14.8571C12.9348 14.3945 12.4256 13.7066 12.185 12.9107C11.9444 12.1148 11.9872 11.2601 12.3062 10.4922C12.6252 9.72433 13.2005 9.09082 13.9342 8.69963C14.6679 8.30843 15.5146 8.18376 16.3299 8.34686C17.1453 8.50996 17.8788 8.95074 18.4056 9.59408C18.9323 10.2374 19.2197 11.0435 19.2188 11.875ZM18.2422 11.4062C18.1353 10.7897 17.8141 10.2306 17.3353 9.82772C16.8565 9.4248 16.2508 9.20387 15.625 9.20387C14.9992 9.20387 14.3935 9.4248 13.9147 9.82772C13.4359 10.2306 13.1147 10.7897 13.0078 11.4062H18.2422ZM10.7813 12.3438C10.7813 13.1726 10.452 13.9674 9.86596 14.5535C9.27991 15.1395 8.48505 15.4688 7.65625 15.4688H2.5C2.37568 15.4688 2.25645 15.4194 2.16854 15.3315C2.08064 15.2435 2.03125 15.1243 2.03125 15V5C2.03125 4.87568 2.08064 4.75645 2.16854 4.66854C2.25645 4.58064 2.37568 4.53125 2.5 4.53125H6.71875C7.28119 4.53117 7.83073 4.69972 8.2964 5.01514C8.76207 5.33055 9.12247 5.77834 9.33106 6.30066C9.53966 6.82299 9.58686 7.39586 9.46657 7.94528C9.34627 8.4947 9.06402 8.99544 8.65625 9.38281C9.27568 9.59203 9.81388 9.99026 10.1951 10.5214C10.5763 11.0526 10.7813 11.6899 10.7813 12.3438ZM2.96875 9.21875H6.71875C7.21603 9.21875 7.69295 9.02121 8.04458 8.66958C8.39621 8.31794 8.59375 7.84103 8.59375 7.34375C8.59375 6.84647 8.39621 6.36956 8.04458 6.01792C7.69295 5.66629 7.21603 5.46875 6.71875 5.46875H2.96875V9.21875ZM9.84375 12.3438C9.84169 11.7642 9.61056 11.209 9.20077 10.7992C8.79098 10.3894 8.23578 10.1583 7.65625 10.1562H2.96875V14.5312H7.65625C8.23578 14.5292 8.79098 14.2981 9.20077 13.8883C9.61056 13.4785 9.84169 12.9233 9.84375 12.3438Z" fill="#DAC5A7"/>
</svg>
